<?xml version="1.0" standalone="no"?>
<!DOCTYPE svg PUBLIC "-//W3C//DTD SVG 20010904//EN"
 "http://www.w3.org/TR/2001/REC-SVG-20010904/DTD/svg10.dtd">
<svg version="1.0" xmlns="http://www.w3.org/2000/svg"
 width="712.000000pt" height="712.000000pt" viewBox="0 0 712.000000 712.000000"
 preserveAspectRatio="xMidYMid meet">
<metadata>
Created by potrace 1.14, written by Peter Selinger 2001-2017
</metadata>
<g transform="translate(0.000000,712.000000) scale(0.100000,-0.100000)"
fill="#000000" stroke="none">
<path d="M3410 6323 c0 -5 -8 -9 -17 -9 -82 -3 -213 -17 -228 -25 -5 -3 -25
-5 -42 -5 -18 1 -33 -2 -33 -5 0 -4 -21 -10 -46 -14 -25 -3 -63 -13 -85 -20
-29 -11 -39 -11 -39 -2 0 8 -3 8 -9 -1 -4 -7 -17 -15 -27 -17 -10 -2 -19 -4
-19 -5 0 -1 -10 -3 -21 -5 -12 -3 -34 -10 -50 -16 -16 -7 -32 -13 -36 -14 -5
-2 -10 -4 -13 -5 -3 -1 -9 -4 -15 -5 -5 -1 -12 -4 -15 -5 -3 -1 -8 -3 -12 -4
-5 -1 -29 -12 -55 -24 -26 -12 -54 -22 -62 -22 -9 0 -16 -4 -16 -10 0 -5 -6
-10 -14 -10 -14 0 -77 -30 -86 -41 -3 -3 -17 -9 -32 -13 -16 -3 -28 -11 -28
-17 0 -6 -4 -7 -10 -4 -5 3 -10 2 -10 -3 0 -13 -50 -33 -62 -26 -6 4 -8 2 -4
-4 3 -6 -20 -26 -56 -48 -35 -21 -64 -42 -66 -46 -2 -4 -8 -8 -13 -8 -6 0 -15
-5 -22 -10 -58 -50 -74 -59 -85 -55 -7 3 -11 1 -8 -4 3 -5 -15 -26 -41 -47
-109 -89 -254 -234 -333 -334 -14 -17 -32 -40 -40 -50 -8 -10 -24 -31 -35 -46
-11 -16 -28 -36 -37 -46 -10 -10 -16 -18 -13 -18 3 0 -2 -11 -11 -25 -9 -14
-20 -23 -24 -20 -5 3 -6 -5 -3 -17 3 -13 3 -20 -2 -16 -4 4 -23 -23 -43 -60
-19 -37 -38 -69 -43 -72 -4 -3 -9 -12 -11 -20 -2 -8 -9 -21 -15 -28 -7 -7 -13
-22 -13 -31 0 -10 -6 -24 -14 -30 -8 -7 -18 -26 -21 -42 -4 -16 -11 -29 -16
-29 -5 0 -9 -8 -9 -18 0 -10 -5 -23 -12 -30 -7 -7 -8 -12 -4 -12 5 0 4 -6 -1
-12 -6 -7 -13 -26 -17 -41 -4 -17 -11 -25 -18 -21 -7 4 -8 3 -4 -4 9 -15 -4
-63 -15 -56 -5 3 -7 -1 -4 -8 7 -21 -31 -123 -46 -120 -10 3 -10 0 0 -12 10
-12 10 -23 1 -51 -7 -20 -13 -46 -15 -58 -2 -12 -8 -47 -14 -77 -22 -113 -24
-126 -22 -152 1 -16 -2 -28 -6 -28 -5 0 -8 -28 -8 -63 1 -34 -3 -70 -8 -81 -7
-14 -6 -16 4 -11 8 6 10 4 4 -5 -11 -17 -13 -170 -3 -176 5 -3 4 -13 -1 -22
-5 -9 -5 -26 -1 -37 5 -12 4 -28 0 -35 -5 -8 -5 -19 0 -25 4 -5 11 -39 14 -75
3 -36 7 -76 9 -90 21 -129 24 -145 27 -145 1 0 3 -13 4 -30 1 -16 6 -37 11
-45 5 -8 10 -26 10 -40 1 -14 7 -38 14 -54 6 -16 13 -36 14 -45 1 -9 6 -22 10
-28 5 -7 5 -17 2 -23 -3 -5 -1 -10 6 -10 7 0 9 -8 6 -21 -3 -12 -3 -18 1 -15
5 5 34 -58 46 -99 2 -5 11 -27 20 -47 9 -21 15 -39 14 -40 -2 -2 9 -24 24 -49
15 -26 24 -49 21 -53 -3 -3 -1 -6 5 -6 7 0 12 -7 12 -15 0 -8 5 -15 10 -15 6
0 10 -9 10 -20 0 -11 5 -20 10 -20 6 0 10 -9 10 -20 0 -11 3 -20 8 -20 12 0
42 -61 35 -72 -3 -6 -2 -9 3 -6 5 4 25 -17 44 -45 19 -29 45 -65 57 -80 13
-16 20 -34 17 -39 -4 -6 -2 -8 3 -5 6 4 18 -5 28 -19 21 -32 50 -67 92 -110
17 -17 29 -35 26 -38 -4 -3 2 -6 12 -6 15 0 16 -2 4 -17 -10 -12 -11 -15 -1
-9 14 9 45 -12 37 -24 -3 -5 3 -11 13 -15 11 -3 33 -21 51 -40 17 -19 36 -35
42 -35 6 0 7 -4 4 -10 -3 -5 -1 -10 4 -10 6 0 23 -13 38 -29 16 -15 38 -33 51
-40 12 -7 20 -16 17 -22 -4 -5 -3 -9 2 -8 11 3 63 -23 63 -31 0 -3 -6 -12 -12
-20 -11 -12 -10 -12 4 -1 15 11 20 10 32 -2 8 -8 12 -18 8 -21 -3 -4 1 -4 11
0 12 4 17 1 17 -10 0 -9 5 -16 11 -16 5 0 7 6 3 13 -5 8 -3 8 9 -2 9 -7 14
-18 10 -25 -3 -6 -3 -8 2 -4 8 8 61 -16 83 -38 7 -8 18 -14 23 -14 5 0 9 -5 9
-11 0 -5 -4 -7 -10 -4 -5 3 -10 1 -10 -4 0 -14 13 -14 27 0 8 8 17 5 32 -10
12 -12 21 -19 21 -16 0 3 10 1 21 -6 18 -9 19 -13 8 -21 -10 -7 -8 -8 8 -3 12
3 32 1 45 -6 13 -7 30 -16 38 -20 8 -4 35 -18 60 -29 25 -12 53 -26 62 -31 10
-5 25 -9 34 -9 11 0 14 -5 10 -16 -5 -13 -3 -14 7 -6 9 8 21 7 42 -2 32 -14
115 -41 128 -41 4 0 6 -4 5 -10 -2 -5 -7 -9 -11 -7 -5 1 -6 -2 -2 -8 5 -7 11
-8 19 -1 13 11 72 10 69 -2 -2 -4 -3 -10 -3 -14 0 -5 -5 -1 -10 7 -7 11 -10
11 -10 2 0 -7 -5 -10 -12 -6 -6 4 -8 3 -4 -4 7 -12 49 -7 54 7 2 6 13 6 30 0
28 -11 61 -19 97 -23 12 -1 26 -6 33 -10 7 -4 16 -5 21 -1 6 3 14 -3 20 -12 6
-10 11 -13 11 -7 0 12 70 13 70 2 0 -4 8 -7 18 -6 36 3 63 -2 58 -11 -3 -5 1
-11 9 -14 9 -4 12 -1 8 9 -3 8 1 14 11 14 9 0 16 -7 16 -15 0 -8 5 -15 11 -15
5 0 8 4 4 9 -3 5 -1 12 4 16 5 3 14 -3 20 -12 10 -17 10 -17 11 2 0 15 2 17 9
6 7 -10 10 -10 16 -1 6 9 12 7 25 -10 16 -21 18 -21 34 -5 16 17 18 16 31 -1
11 -16 16 -17 27 -6 11 11 10 12 -4 7 -13 -5 -18 -2 -18 11 0 11 3 15 8 9 4
-6 40 -11 80 -10 67 0 89 -6 60 -19 -7 -2 -3 -4 9 -2 12 1 26 6 30 11 5 4 2 5
-4 1 -7 -4 -13 -3 -13 3 0 15 18 23 25 11 3 -5 11 -10 16 -10 6 0 8 4 5 9 -3
5 2 8 12 7 9 0 20 -8 24 -16 5 -12 7 -12 7 3 1 18 31 25 31 7 0 -5 5 -10 11
-10 5 0 7 5 4 10 -9 14 9 12 24 -2 10 -11 11 -10 6 2 -4 11 1 16 15 17 11 1
18 -2 15 -7 -3 -5 0 -12 6 -16 7 -4 9 -3 6 3 -10 16 14 29 51 29 17 -1 32 2
32 6 0 4 12 5 26 2 14 -3 23 -1 21 4 -3 4 3 8 13 8 10 0 16 -5 14 -11 -3 -5 1
-2 9 8 9 11 18 14 21 8 4 -5 2 -12 -4 -16 -5 -3 -10 -11 -10 -18 0 -6 6 -2 14
8 8 11 12 24 8 29 -3 5 2 7 10 3 9 -3 19 -3 23 1 4 4 11 8 16 8 5 1 10 2 12 3
5 5 53 14 74 15 11 1 19 5 15 10 -3 5 2 7 11 3 10 -3 17 -2 17 4 0 5 6 9 13 8
6 -1 26 4 42 11 17 7 38 12 48 12 9 0 15 3 12 8 -3 6 1 7 9 4 9 -3 16 -2 16 4
0 5 9 12 20 15 11 3 18 2 15 -3 -3 -4 2 -10 10 -13 9 -4 12 -1 8 9 -6 17 52
45 76 36 9 -3 12 -1 7 6 -6 10 7 17 17 10 2 -2 11 5 21 14 9 10 24 14 33 11
11 -4 14 -3 9 5 -4 7 -1 12 8 12 8 0 22 7 31 17 13 13 18 14 25 3 6 -9 10 -7
14 8 4 12 19 23 36 27 17 4 30 11 30 17 0 6 9 8 20 5 11 -3 18 -1 15 3 -3 5 8
18 25 30 16 12 30 18 30 14 0 -4 6 0 13 11 8 10 19 15 25 11 7 -4 12 0 12 10
0 10 2 15 5 12 3 -3 20 8 37 24 17 16 33 27 35 24 3 -3 17 7 32 22 15 15 45
41 66 57 21 17 51 42 66 57 18 16 30 22 33 15 3 -7 5 -6 5 3 2 22 48 63 62 54
8 -4 9 -3 5 4 -8 13 62 92 82 92 7 0 11 4 8 9 -6 8 13 32 89 113 14 15 25 32
25 37 0 5 3 11 8 13 4 2 34 42 66 90 34 50 64 85 70 81 6 -3 8 -3 4 2 -9 10
42 106 52 100 5 -3 6 4 3 15 -3 11 0 20 6 20 6 0 10 6 8 13 -1 6 6 11 17 10
12 -1 15 2 8 9 -11 11 30 104 57 126 9 8 10 11 4 7 -16 -8 -17 7 -1 23 7 7 8
12 2 12 -5 0 -3 4 4 8 7 5 15 21 18 36 2 15 11 38 19 50 8 13 12 26 8 31 -5 4
3 4 17 1 21 -6 22 -5 8 4 -16 10 -17 14 -3 46 8 19 14 35 14 37 -1 1 7 28 16
61 9 32 19 66 20 75 2 9 4 17 5 19 2 1 4 7 5 12 1 6 3 11 4 13 2 1 4 16 6 32
2 17 7 41 11 55 4 14 8 32 9 40 1 8 5 38 10 65 5 28 9 66 11 85 1 19 3 35 4
35 1 0 3 25 4 55 1 30 5 61 9 68 5 6 4 12 -2 12 -6 0 -7 11 -2 28 4 15 6 47 4
72 -3 48 -3 57 -2 93 1 12 -2 54 -6 92 -3 39 -8 90 -10 115 -2 25 -7 59 -10
75 -2 17 -6 40 -8 52 -2 12 -6 26 -10 29 -4 4 -1 14 6 22 9 13 9 14 0 8 -9 -5
-13 1 -13 21 0 15 -4 35 -10 43 -6 9 -5 20 3 29 9 12 9 13 0 7 -8 -4 -13 -1
-14 8 -2 20 -4 26 -14 50 -5 10 -9 28 -10 40 -1 12 -5 29 -9 38 -4 9 -8 22
-10 30 -1 7 -4 18 -7 23 -10 17 -33 90 -31 98 1 4 -3 7 -10 7 -6 0 -9 3 -5 6
3 4 -2 23 -13 44 -11 21 -16 40 -13 44 4 3 2 6 -3 6 -6 0 -16 17 -23 38 -8 20
-20 45 -28 54 -8 9 -12 22 -8 27 3 6 1 11 -4 11 -6 0 -11 6 -11 14 0 7 -7 19
-15 26 -8 7 -12 16 -9 21 3 5 2 9 -3 9 -4 0 -24 29 -42 65 -19 36 -39 65 -43
65 -4 0 -8 6 -8 13 0 8 -9 22 -20 32 -11 10 -20 24 -20 32 0 7 -4 13 -10 13
-5 0 -10 5 -10 10 0 6 -8 19 -17 29 -30 32 -43 50 -43 56 0 3 -13 19 -30 35
-16 16 -30 32 -30 34 0 10 -217 236 -226 236 -13 0 -62 55 -57 63 3 6 1 7 -5
3 -6 -3 -26 7 -45 24 -19 16 -39 30 -45 30 -6 0 -12 3 -14 8 -4 8 -115 92
-122 92 -5 0 -121 72 -141 87 -13 11 -88 47 -98 47 -4 1 -12 8 -17 16 -5 8
-10 11 -10 7 0 -5 -12 -2 -27 7 -40 21 -112 51 -158 67 -22 7 -44 17 -50 21
-5 4 -19 8 -32 8 -13 0 -23 5 -23 12 0 6 -3 9 -6 5 -3 -3 -18 -1 -33 5 -14 5
-33 11 -41 13 -8 3 -40 11 -70 19 -30 9 -75 19 -100 22 -25 3 -47 9 -50 13 -3
3 -14 7 -24 8 -11 1 -42 4 -70 8 -28 4 -73 9 -100 11 -27 2 -56 9 -64 16 -9 8
-13 8 -9 2 7 -13 -125 -10 -145 2 -7 4 -8 2 -4 -4 5 -9 0 -10 -16 -4 -13 4
-34 7 -48 5 -60 -5 -109 -5 -119 1 -6 4 -11 3 -11 -1z m70 -4807 c0 -3 -4 -8
-10 -11 -5 -3 -10 -1 -10 4 0 6 5 11 10 11 6 0 10 -2 10 -4z"/>
<path d="M4315 6251 c-3 -5 -2 -12 3 -15 5 -3 9 1 9 9 0 17 -3 19 -12 6z"/>
<path d="M1270 4866 c0 -2 7 -7 16 -10 8 -3 12 -2 9 4 -6 10 -25 14 -25 6z"/>
<path d="M1315 2680 c3 -5 8 -10 11 -10 2 0 4 5 4 10 0 6 -5 10 -11 10 -5 0
-7 -4 -4 -10z"/>
<path d="M5790 2646 c0 -2 7 -7 16 -10 8 -3 12 -2 9 4 -6 10 -25 14 -25 6z"/>
<path d="M1275 2601 c-3 -5 -2 -12 3 -15 5 -3 9 1 9 9 0 17 -3 19 -12 6z"/>
<path d="M5597 2573 c-10 -9 -9 -23 1 -23 5 0 9 7 9 15 0 17 -1 18 -10 8z"/>
<path d="M1573 2505 c0 -8 4 -12 9 -9 5 3 6 10 3 15 -9 13 -12 11 -12 -6z"/>
<path d="M5536 2462 c-3 -4 4 -9 15 -9 23 -2 25 3 4 10 -8 4 -16 3 -19 -1z"/>
<path d="M1390 2446 c0 -2 7 -7 16 -10 8 -3 12 -2 9 4 -6 10 -25 14 -25 6z"/>
<path d="M5670 2446 c0 -2 7 -7 16 -10 8 -3 12 -2 9 4 -6 10 -25 14 -25 6z"/>
<path d="M1635 2420 c3 -5 8 -10 11 -10 2 0 4 5 4 10 0 6 -5 10 -11 10 -5 0
-7 -4 -4 -10z"/>
<path d="M5496 2382 c-3 -5 1 -9 9 -9 8 0 12 4 9 9 -3 4 -7 8 -9 8 -2 0 -6 -4
-9 -8z"/>
<path d="M5454 2356 c1 -8 5 -18 8 -22 4 -3 5 1 4 10 -1 8 -5 18 -8 22 -4 3
-5 -1 -4 -10z"/>
<path d="M1695 2340 c3 -5 8 -10 11 -10 2 0 4 5 4 10 0 6 -5 10 -11 10 -5 0
-7 -4 -4 -10z"/>
<path d="M1690 2259 c0 -5 5 -7 10 -4 6 3 10 8 10 11 0 2 -4 4 -10 4 -5 0 -10
-5 -10 -11z"/>
<path d="M5335 2220 c3 -5 8 -10 11 -10 2 0 4 5 4 10 0 6 -5 10 -11 10 -5 0
-7 -4 -4 -10z"/>
<path d="M5366 2222 c-3 -5 1 -9 9 -9 8 0 12 4 9 9 -3 4 -7 8 -9 8 -2 0 -6 -4
-9 -8z"/>
<path d="M1826 2202 c-3 -5 1 -9 9 -9 8 0 12 4 9 9 -3 4 -7 8 -9 8 -2 0 -6 -4
-9 -8z"/>
<path d="M5335 2180 c3 -5 8 -10 11 -10 2 0 4 5 4 10 0 6 -5 10 -11 10 -5 0
-7 -4 -4 -10z"/>
<path d="M1775 2140 c3 -5 8 -10 11 -10 2 0 4 5 4 10 0 6 -5 10 -11 10 -5 0
-7 -4 -4 -10z"/>
<path d="M5330 2140 c0 -5 5 -10 11 -10 5 0 7 5 4 10 -3 6 -8 10 -11 10 -2 0
-4 -4 -4 -10z"/>
<path d="M1896 2122 c-3 -4 4 -9 15 -9 23 -2 25 3 4 10 -8 4 -16 3 -19 -1z"/>
<path d="M5196 2082 c-3 -5 1 -9 9 -9 8 0 12 4 9 9 -3 4 -7 8 -9 8 -2 0 -6 -4
-9 -8z"/>
<path d="M2010 2056 c0 -2 8 -10 18 -17 15 -13 16 -12 3 4 -13 16 -21 21 -21
13z"/>
<path d="M5054 2018 c-3 -5 0 -7 8 -6 7 2 12 -4 10 -12 -2 -8 0 -11 4 -7 14
13 12 34 -3 34 -7 0 -16 -4 -19 -9z"/>
<path d="M5113 2023 c4 -3 -1 -16 -10 -27 -18 -21 -18 -21 4 -2 20 16 23 36 6
36 -4 0 -3 -3 0 -7z"/>
<path d="M5296 2022 c-2 -4 -1 -14 4 -22 7 -11 9 -9 7 8 -1 24 -3 26 -11 14z"/>
<path d="M2077 2005 c3 -8 9 -12 14 -9 12 7 11 11 -5 17 -10 4 -13 1 -9 -8z"/>
<path d="M1776 2002 c-3 -5 1 -9 9 -9 8 0 12 4 9 9 -3 4 -7 8 -9 8 -2 0 -6 -4
-9 -8z"/>
<path d="M1855 1979 c-3 -4 2 -6 10 -5 21 3 28 13 10 13 -9 0 -18 -4 -20 -8z"/>
<path d="M2026 1962 c-3 -5 1 -9 9 -9 8 0 12 4 9 9 -3 4 -7 8 -9 8 -2 0 -6 -4
-9 -8z"/>
<path d="M4973 1956 c-3 -6 -3 -8 2 -4 4 4 13 3 20 -2 8 -7 12 -5 12 3 0 16
-25 18 -34 3z"/>
<path d="M5150 1959 c0 -5 5 -7 10 -4 6 3 10 8 10 11 0 2 -4 4 -10 4 -5 0 -10
-5 -10 -11z"/>
<path d="M1899 1948 c-5 -18 -6 -38 -1 -34 7 8 12 36 6 36 -2 0 -4 -1 -5 -2z"/>
<path d="M4974 1920 c0 -13 4 -16 10 -10 7 7 7 13 0 20 -6 6 -10 3 -10 -10z"/>
<path d="M4919 1893 c-13 -16 -12 -17 4 -4 16 13 21 21 13 21 -2 0 -10 -8 -17
-17z"/>
<path d="M5174 1896 c1 -8 5 -18 8 -22 4 -3 5 1 4 10 -1 8 -5 18 -8 22 -4 3
-5 -1 -4 -10z"/>
<path d="M1887 1879 c7 -7 15 -10 18 -7 3 3 -2 9 -12 12 -14 6 -15 5 -6 -5z"/>
<path d="M2242 1881 c-11 -6 -10 -10 0 -19 11 -8 14 -7 14 9 0 10 0 19 -1 19
0 0 -6 -4 -13 -9z"/>
<path d="M4990 1885 c0 -7 30 -13 34 -7 3 4 -4 9 -15 9 -10 1 -19 0 -19 -2z"/>
<path d="M2053 1865 c0 -8 4 -12 9 -9 5 3 6 10 3 15 -9 13 -12 11 -12 -6z"/>
<path d="M1976 1858 c3 -5 10 -6 15 -3 13 9 11 12 -6 12 -8 0 -12 -4 -9 -9z"/>
<path d="M2015 1860 c-3 -5 -1 -10 4 -10 6 0 11 5 11 10 0 6 -2 10 -4 10 -3 0
-8 -4 -11 -10z"/>
<path d="M2146 1858 c3 -4 9 -8 15 -8 5 0 9 4 9 8 0 5 -7 9 -15 9 -8 0 -12 -4
-9 -9z"/>
<path d="M4900 1866 c0 -2 8 -10 18 -17 15 -13 16 -12 3 4 -13 16 -21 21 -21
13z"/>
<path d="M1713 1845 c0 -8 4 -15 9 -15 4 0 8 4 8 9 0 6 -4 12 -8 15 -5 3 -9
-1 -9 -9z"/>
<path d="M2210 1856 c0 -2 8 -10 18 -17 15 -13 16 -12 3 4 -13 16 -21 21 -21
13z"/>
<path d="M4816 1833 c-6 -14 -5 -15 5 -6 7 7 10 15 7 18 -3 3 -9 -2 -12 -12z"/>
<path d="M4879 1843 c0 -5 -2 -16 -4 -26 -2 -11 -1 -16 3 -13 8 8 14 46 7 46
-3 0 -5 -3 -6 -7z"/>
<path d="M5094 1836 c1 -8 5 -18 8 -22 4 -3 5 1 4 10 -1 8 -5 18 -8 22 -4 3
-5 -1 -4 -10z"/>
<path d="M2016 1822 c-3 -5 1 -9 9 -9 8 0 12 4 9 9 -3 4 -7 8 -9 8 -2 0 -6 -4
-9 -8z"/>
<path d="M2055 1820 c3 -5 8 -10 11 -10 2 0 4 5 4 10 0 6 -5 10 -11 10 -5 0
-7 -4 -4 -10z"/>
<path d="M2347 1815 c3 -8 9 -12 14 -9 12 7 11 11 -5 17 -10 4 -13 1 -9 -8z"/>
<path d="M4839 1813 c-13 -16 -12 -17 4 -4 16 13 21 21 13 21 -2 0 -10 -8 -17
-17z"/>
<path d="M5055 1820 c3 -5 8 -10 11 -10 2 0 4 5 4 10 0 6 -5 10 -11 10 -5 0
-7 -4 -4 -10z"/>
<path d="M2262 1804 c10 -10 20 -16 22 -13 3 3 -5 11 -17 18 -21 13 -21 12 -5
-5z"/>
<path d="M2145 1800 c-3 -6 1 -7 9 -4 18 7 21 14 7 14 -6 0 -13 -4 -16 -10z"/>
<path d="M4771 1794 c0 -11 3 -14 6 -6 3 7 2 16 -1 19 -3 4 -6 -2 -5 -13z"/>
<path d="M2236 1787 c3 -10 9 -15 12 -12 3 3 0 11 -7 18 -10 9 -11 8 -5 -6z"/>
<path d="M2305 1779 c-3 -4 2 -6 10 -5 21 3 28 13 10 13 -9 0 -18 -4 -20 -8z"/>
<path d="M4720 1780 c-9 -6 -10 -10 -3 -10 6 0 15 5 18 10 8 12 4 12 -15 0z"/>
<path d="M4820 1786 c0 -2 8 -10 18 -17 15 -13 16 -12 3 4 -13 16 -21 21 -21
13z"/>
<path d="M5055 1780 c-3 -5 -1 -10 4 -10 6 0 11 5 11 10 0 6 -2 10 -4 10 -3 0
-8 -4 -11 -10z"/>
<path d="M2380 1765 c6 -8 9 -19 5 -24 -4 -7 0 -8 10 -5 14 6 14 8 -1 25 -20
22 -32 26 -14 4z"/>
<path d="M2213 1755 c0 -8 4 -12 9 -9 4 3 8 9 8 15 0 5 -4 9 -8 9 -5 0 -9 -7
-9 -15z"/>
<path d="M2339 1753 c-12 -16 -12 -17 2 -6 9 7 20 9 24 5 5 -4 5 -1 1 6 -9 16
-11 15 -27 -5z"/>
<path d="M2450 1762 c0 -4 10 -9 22 -9 18 -2 20 0 8 7 -18 12 -30 13 -30 2z"/>
<path d="M4670 1759 c0 -5 5 -7 10 -4 6 3 10 8 10 11 0 2 -4 4 -10 4 -5 0 -10
-5 -10 -11z"/>
<path d="M4737 1751 c-10 -14 -10 -14 4 -4 9 7 18 10 21 7 3 -3 8 -1 12 4 9
16 -24 9 -37 -7z"/>
<path d="M4791 1767 c2 -1 13 -9 24 -17 19 -14 19 -14 6 3 -7 9 -18 17 -24 17
-6 0 -8 -1 -6 -3z"/>
<path d="M2054 1742 c4 -3 14 -7 22 -8 9 -1 13 0 10 4 -4 3 -14 7 -22 8 -9 1
-13 0 -10 -4z"/>
<path d="M2430 1743 c5 -2 8 -9 5 -13 -3 -5 -1 -11 4 -14 5 -4 8 2 7 11 -2 9
-8 18 -15 19 -6 1 -7 0 -1 -3z"/>
<path d="M4680 1740 c-9 -6 -10 -10 -3 -10 6 0 15 5 18 10 8 12 4 12 -15 0z"/>
<path d="M2289 1723 c-13 -16 -12 -17 4 -4 9 7 17 15 17 17 0 8 -8 3 -21 -13z"/>
<path d="M2355 1730 c-4 -6 -10 -8 -14 -6 -4 3 -8 -1 -8 -9 0 -13 4 -12 19 2
18 16 22 23 14 23 -3 0 -8 -5 -11 -10z"/>
<path d="M4602 1720 c7 -10 14 -18 15 -16 6 6 -9 36 -18 36 -5 0 -4 -9 3 -20z"/>
<path d="M4755 1730 c-4 -6 -10 -8 -14 -6 -4 3 -8 -1 -8 -9 0 -13 4 -12 19 2
18 16 22 23 14 23 -3 0 -8 -5 -11 -10z"/>
<path d="M2400 1726 c0 -2 8 -10 18 -17 15 -13 16 -12 3 4 -13 16 -21 21 -21
13z"/>
<path d="M5015 1720 c-3 -5 -1 -10 4 -10 6 0 11 5 11 10 0 6 -2 10 -4 10 -3 0
-8 -4 -11 -10z"/>
<path d="M5055 1720 c-3 -5 -1 -10 4 -10 6 0 11 5 11 10 0 6 -2 10 -4 10 -3 0
-8 -4 -11 -10z"/>
<path d="M2388 1699 c6 -9 8 -20 4 -25 -4 -5 -3 -6 2 -2 5 4 14 3 21 -2 8 -7
12 -5 12 5 0 8 -3 13 -5 10 -3 -3 -15 3 -26 12 -15 14 -18 14 -8 2z"/>
<path d="M4759 1693 c-13 -16 -12 -17 4 -4 9 7 17 15 17 17 0 8 -8 3 -21 -13z"/>
<path d="M2235 1691 c-3 -5 -2 -12 3 -15 5 -3 9 1 9 9 0 17 -3 19 -12 6z"/>
<path d="M4500 1686 c7 -7 13 -7 20 0 6 6 3 10 -10 10 -13 0 -16 -4 -10 -10z"/>
<path d="M4580 1689 c0 -5 -4 -8 -8 -5 -4 2 -13 -3 -19 -13 -9 -14 -8 -18 3
-18 7 0 10 5 7 10 -4 6 0 8 8 5 10 -4 15 1 16 13 1 10 0 19 -3 19 -2 0 -4 -5
-4 -11z"/>
<path d="M2190 1686 c0 -2 7 -7 16 -10 8 -3 12 -2 9 4 -6 10 -25 14 -25 6z"/>
<path d="M2513 1675 c0 -8 4 -12 9 -9 5 3 6 10 3 15 -9 13 -12 11 -12 -6z"/>
<path d="M4655 1681 c-3 -5 -2 -12 3 -15 5 -3 9 1 9 9 0 17 -3 19 -12 6z"/>
<path d="M4793 1665 c0 -8 4 -12 9 -9 5 3 6 10 3 15 -9 13 -12 11 -12 -6z"/>
<path d="M2460 1666 c0 -2 8 -10 18 -17 15 -13 16 -12 3 4 -13 16 -21 21 -21
13z"/>
<path d="M4930 1660 c0 -5 5 -10 11 -10 5 0 7 5 4 10 -3 6 -8 10 -11 10 -2 0
-4 -4 -4 -10z"/>
<path d="M4979 1668 c-5 -18 -6 -38 -1 -34 7 8 12 36 6 36 -2 0 -4 -1 -5 -2z"/>
<path d="M2540 1649 c0 -5 -4 -7 -10 -4 -14 9 -12 -1 3 -13 10 -8 13 -6 14 9
1 10 0 19 -3 19 -2 0 -4 -5 -4 -11z"/>
<path d="M2574 1639 c0 -12 4 -15 12 -8 6 5 19 7 28 3 10 -4 16 -1 16 7 0 7
-3 10 -6 6 -3 -3 -16 -2 -28 3 -17 6 -22 4 -22 -11z"/>
<path d="M2698 1648 c5 -5 16 -8 23 -6 8 3 3 7 -10 11 -17 4 -21 3 -13 -5z"/>
<path d="M4435 1650 c-4 -6 -10 -8 -15 -5 -5 3 -11 1 -14 -4 -8 -13 22 -7 36
7 7 7 9 12 6 12 -4 0 -10 -5 -13 -10z"/>
<path d="M4496 1646 c3 -7 11 -13 19 -13 22 0 18 14 -4 20 -13 3 -18 0 -15 -7z"/>
<path d="M2095 1640 c3 -5 8 -10 11 -10 2 0 4 5 4 10 0 6 -5 10 -11 10 -5 0
-7 -4 -4 -10z"/>
<path d="M2440 1646 c0 -2 8 -10 18 -17 15 -13 16 -12 3 4 -13 16 -21 21 -21
13z"/>
<path d="M4367 1639 c7 -7 15 -10 18 -7 3 3 -2 9 -12 12 -14 6 -15 5 -6 -5z"/>
<path d="M4470 1641 c0 -6 4 -13 10 -16 6 -3 7 1 4 9 -7 18 -14 21 -14 7z"/>
<path d="M4576 1633 c-6 -14 -5 -15 5 -6 7 7 10 15 7 18 -3 3 -9 -2 -12 -12z"/>
<path d="M2756 1627 c3 -10 9 -15 12 -12 3 3 0 11 -7 18 -10 9 -11 8 -5 -6z"/>
<path d="M2255 1620 c-3 -5 -1 -10 4 -10 6 0 11 5 11 10 0 6 -2 10 -4 10 -3 0
-8 -4 -11 -10z"/>
<path d="M2509 1618 c7 -9 9 -23 5 -30 -6 -10 -4 -11 7 0 11 10 10 15 -6 30
-17 15 -18 15 -6 0z"/>
<path d="M2724 1616 c-3 -9 -13 -12 -22 -9 -9 4 -14 3 -11 -1 4 -4 16 -8 27
-11 16 -3 19 0 15 12 -5 12 -3 14 7 8 9 -5 11 -4 6 3 -10 16 -15 15 -22 -2z"/>
<path d="M4309 1606 c-9 -19 -9 -19 4 -4 8 10 16 15 19 12 4 -3 8 -1 12 4 3 5
-2 9 -10 9 -8 0 -20 -10 -25 -21z"/>
<path d="M4435 1620 c-3 -5 -4 -10 0 -10 3 0 1 -8 -4 -18 -7 -14 -6 -19 4 -19
8 0 11 7 7 16 -5 13 -3 14 9 4 12 -10 15 -8 15 6 0 12 -5 17 -15 13 -9 -3 -12
-1 -7 6 4 7 5 12 2 12 -3 0 -8 -4 -11 -10z"/>
<path d="M4643 1618 c-11 -19 -13 -39 -1 -32 5 3 7 9 4 12 -3 3 -1 11 5 19 6
7 9 13 6 13 -3 0 -9 -6 -14 -12z"/>
<path d="M2781 1604 c0 -11 3 -14 6 -6 3 7 2 16 -1 19 -3 4 -6 -2 -5 -13z"/>
<path d="M4354 1609 c-3 -6 -1 -16 6 -22 10 -9 11 -9 5 2 -4 8 -2 17 6 22 9 6
10 9 2 9 -6 0 -15 -5 -19 -11z"/>
<path d="M4539 1618 c-5 -18 -6 -38 -1 -34 7 8 12 36 6 36 -2 0 -4 -1 -5 -2z"/>
<path d="M2219 1608 c-5 -18 -6 -38 -1 -34 7 8 12 36 6 36 -2 0 -4 -1 -5 -2z"/>
<path d="M4276 1602 c-2 -4 -1 -14 4 -22 7 -11 9 -9 7 8 -1 24 -3 26 -11 14z"/>
<path d="M4836 1598 c3 -5 10 -6 15 -3 13 9 11 12 -6 12 -8 0 -12 -4 -9 -9z"/>
<path d="M2355 1591 c-3 -5 -2 -12 3 -15 5 -3 9 1 9 9 0 17 -3 19 -12 6z"/>
<path d="M2590 1596 c0 -2 8 -10 18 -17 15 -13 16 -12 3 4 -13 16 -21 21 -21
13z"/>
<path d="M2246 1582 c-3 -5 1 -9 9 -9 8 0 12 4 9 9 -3 4 -7 8 -9 8 -2 0 -6 -4
-9 -8z"/>
<path d="M2660 1584 c0 -1 6 -7 14 -13 10 -9 15 -8 19 2 3 8 -3 13 -14 13 -11
0 -19 -1 -19 -2z"/>
<path d="M4190 1585 c0 -5 5 -17 10 -25 5 -8 10 -10 10 -5 0 6 -5 17 -10 25
-5 8 -10 11 -10 5z"/>
<path d="M4231 1583 c-1 -17 19 -27 31 -15 6 6 6 12 -3 17 -8 5 -10 4 -5 -3 4
-7 3 -12 -3 -12 -5 0 -12 6 -14 13 -4 9 -6 9 -6 0z"/>
<path d="M4390 1581 c14 -10 7 -16 -15 -11 -5 1 -6 -2 -2 -6 4 -4 14 -9 21
-10 18 -3 13 29 -5 34 -11 3 -11 1 1 -7z"/>
<path d="M4895 1579 c-3 -4 2 -6 10 -5 21 3 28 13 10 13 -9 0 -18 -4 -20 -8z"/>
<path d="M2531 1567 c-8 -10 -7 -14 2 -14 8 0 14 6 14 14 0 7 -1 13 -2 13 -2
0 -8 -6 -14 -13z"/>
<path d="M2573 1567 c0 -7 9 -14 20 -14 11 -1 18 -1 16 0 -2 2 -11 8 -20 15
-12 9 -16 9 -16 -1z"/>
<path d="M2977 1569 c7 -7 15 -10 18 -7 3 3 -2 9 -12 12 -14 6 -15 5 -6 -5z"/>
<path d="M4316 1563 c-4 -9 -4 -14 0 -10 4 4 14 1 23 -6 14 -11 15 -10 1 8 -8
11 -15 21 -16 23 -1 2 -5 -5 -8 -15z"/>
<path d="M4493 1565 c0 -8 3 -13 5 -10 3 3 12 -1 21 -7 10 -8 9 -4 -3 10 -23
26 -23 26 -23 7z"/>
<path d="M2754 1553 c2 -9 8 -18 15 -19 6 -1 7 0 2 2 -6 3 -7 12 -4 20 3 8 1
14 -5 14 -6 0 -9 -8 -8 -17z"/>
<path d="M2827 1551 c-3 -13 -1 -18 9 -14 7 2 10 11 7 19 -7 19 -10 18 -16 -5z"/>
<path d="M2870 1566 c0 -2 7 -7 16 -10 8 -3 12 -2 9 4 -6 10 -25 14 -25 6z"/>
<path d="M2946 1562 c-3 -5 1 -9 9 -9 8 0 12 4 9 9 -3 4 -7 8 -9 8 -2 0 -6 -4
-9 -8z"/>
<path d="M3015 1560 c-3 -5 -1 -10 4 -10 6 0 11 5 11 10 0 6 -2 10 -4 10 -3 0
-8 -4 -11 -10z"/>
<path d="M4146 1561 c-4 -5 3 -7 14 -4 23 6 26 13 6 13 -8 0 -17 -4 -20 -9z"/>
<path d="M4720 1560 c-9 -6 -10 -10 -3 -10 6 0 15 5 18 10 8 12 4 12 -15 0z"/>
<path d="M4790 1566 c0 -2 7 -7 16 -10 8 -3 12 -2 9 4 -6 10 -25 14 -25 6z"/>
<path d="M2916 1547 c3 -10 9 -15 12 -12 3 3 0 11 -7 18 -10 9 -11 8 -5 -6z"/>
<path d="M2674 1535 c3 -23 12 -26 13 -5 1 11 -2 20 -7 20 -4 0 -7 -7 -6 -15z"/>
<path d="M4089 1529 c-6 -13 -7 -19 -1 -15 6 3 12 1 14 -6 3 -7 7 -5 11 6 5
11 3 15 -5 10 -8 -5 -9 -2 -5 9 9 24 0 21 -14 -4z"/>
<path d="M4150 1531 c-7 -15 -7 -19 5 -17 8 1 18 6 22 11 5 4 2 5 -6 0 -11 -6
-13 -4 -8 8 9 23 0 21 -13 -2z"/>
<path d="M4546 1538 c3 -4 9 -8 15 -8 5 0 9 4 9 8 0 5 -7 9 -15 9 -8 0 -12 -4
-9 -9z"/>
<path d="M4835 1540 c3 -5 8 -10 11 -10 2 0 4 5 4 10 0 6 -5 10 -11 10 -5 0
-7 -4 -4 -10z"/>
<path d="M2875 1530 c-4 -6 -10 -8 -14 -6 -4 3 -13 0 -21 -5 -11 -7 -8 -8 10
-5 14 2 34 -1 45 -6 18 -8 19 -8 3 5 -10 8 -15 17 -11 20 3 4 4 7 0 7 -3 0 -9
-5 -12 -10z"/>
<path d="M2986 1527 c-16 -12 -16 -14 -3 -14 9 0 18 6 21 14 3 7 4 13 3 13 -2
0 -11 -6 -21 -13z"/>
<path d="M3034 1515 c-2 -33 11 -33 14 0 1 14 -2 25 -6 25 -4 0 -8 -11 -8 -25z"/>
<path d="M3130 1535 c0 -5 5 -17 10 -25 5 -8 10 -10 10 -5 0 6 -5 17 -10 25
-5 8 -10 11 -10 5z"/>
<path d="M3990 1528 c0 -7 4 -19 9 -27 7 -10 9 -7 8 12 -2 26 -17 39 -17 15z"/>
<path d="M4027 1526 c-3 -8 0 -17 7 -19 10 -4 12 1 9 14 -6 23 -9 24 -16 5z"/>
<path d="M4195 1530 c-3 -6 1 -7 9 -4 18 7 21 14 7 14 -6 0 -13 -4 -16 -10z"/>
<path d="M4308 1533 c7 -3 16 -2 19 1 4 3 -2 6 -13 5 -11 0 -14 -3 -6 -6z"/>
<path d="M4674 1526 c1 -8 5 -18 8 -22 4 -3 5 1 4 10 -1 8 -5 18 -8 22 -4 3
-5 -1 -4 -10z"/>
<path d="M1996 1518 c3 -5 10 -6 15 -3 13 9 11 12 -6 12 -8 0 -12 -4 -9 -9z"/>
<path d="M3080 1522 c0 -5 7 -9 15 -9 8 0 12 4 9 9 -3 4 -9 8 -15 8 -5 0 -9
-4 -9 -8z"/>
<path d="M3198 1523 c7 -3 16 -2 19 1 4 3 -2 6 -13 5 -11 0 -14 -3 -6 -6z"/>
<path d="M3240 1515 c-11 -13 -10 -14 4 -9 9 3 16 10 16 15 0 13 -6 11 -20 -6z"/>
<path d="M3920 1520 c8 -5 20 -10 25 -10 6 0 3 5 -5 10 -8 5 -19 10 -25 10 -5
0 -3 -5 5 -10z"/>
<path d="M4353 1510 c-1 -11 2 -20 5 -20 4 0 8 9 9 20 1 11 -2 20 -5 20 -4 0
-8 -9 -9 -20z"/>
<path d="M4527 1519 c7 -7 15 -10 18 -7 3 3 -2 9 -12 12 -14 6 -15 5 -6 -5z"/>
<path d="M4237 1509 c7 -7 15 -10 18 -7 3 3 -2 9 -12 12 -14 6 -15 5 -6 -5z"/>
<path d="M2705 1500 c-3 -6 1 -7 9 -4 18 7 21 14 7 14 -6 0 -13 -4 -16 -10z"/>
<path d="M2740 1504 c0 -1 8 -8 17 -15 9 -8 14 -9 10 -2 -4 6 -1 13 5 16 7 3
3 4 -9 4 -13 -1 -23 -2 -23 -3z"/>
<path d="M2795 1503 c3 -3 -3 -16 -12 -27 -14 -15 -14 -18 -2 -8 9 6 18 9 22
6 3 -3 4 1 3 10 -1 8 -5 18 -9 21 -4 3 -5 2 -2 -2z"/>
<path d="M3116 1493 c-6 -14 -5 -15 5 -6 7 7 10 15 7 18 -3 3 -9 -2 -12 -12z"/>
<path d="M3175 1501 c-9 -15 29 -31 46 -20 12 8 12 10 -1 8 -29 -3 -41 1 -35
11 3 6 4 10 1 10 -3 0 -7 -4 -11 -9z"/>
<path d="M3270 1500 c0 -5 5 -10 10 -10 6 0 10 5 10 10 0 6 -4 10 -10 10 -5 0
-10 -4 -10 -10z"/>
<path d="M3790 1500 c0 -6 7 -10 15 -10 8 0 15 2 15 4 0 2 -7 6 -15 10 -8 3
-15 1 -15 -4z"/>
<path d="M3910 1500 c0 -5 5 -10 11 -10 5 0 7 5 4 10 -3 6 -8 10 -11 10 -2 0
-4 -4 -4 -10z"/>
<path d="M3952 1501 c-11 -7 -11 -9 0 -14 9 -3 15 1 15 9 0 8 -1 14 -1 14 -1
0 -7 -4 -14 -9z"/>
<path d="M4188 1488 c2 -10 9 -18 15 -18 6 0 7 3 4 7 -4 3 -3 11 3 17 6 8 3
12 -9 12 -12 0 -17 -6 -13 -18z"/>
<path d="M4439 1493 c-13 -16 -12 -17 4 -4 16 13 21 21 13 21 -2 0 -10 -8 -17
-17z"/>
<path d="M4730 1500 c0 -5 5 -10 11 -10 5 0 7 5 4 10 -3 6 -8 10 -11 10 -2 0
-4 -4 -4 -10z"/>
<path d="M2933 1486 c0 -8 5 -12 10 -9 7 4 8 -1 3 -13 -6 -15 -5 -17 5 -6 11
10 10 15 -2 28 -14 13 -16 13 -16 0z"/>
<path d="M3073 1493 c-18 -7 -16 -20 2 -20 8 0 12 4 9 8 -2 4 2 10 8 12 7 3 9
5 3 5 -5 0 -16 -2 -22 -5z"/>
<path d="M3410 1490 c-9 -6 -10 -10 -3 -10 6 0 15 5 18 10 8 12 4 12 -15 0z"/>
<path d="M3555 1490 c-3 -5 -2 -18 4 -27 7 -14 9 -12 8 10 -2 30 -3 31 -12 17z"/>
<path d="M3580 1491 c0 -10 19 -25 25 -20 1 2 -3 10 -11 17 -8 7 -14 8 -14 3z"/>
<path d="M3620 1486 c7 -7 13 -7 20 0 6 6 3 10 -10 10 -13 0 -16 -4 -10 -10z"/>
<path d="M3837 1489 c7 -7 15 -10 18 -7 3 3 -2 9 -12 12 -14 6 -15 5 -6 -5z"/>
<path d="M3886 1483 c-4 -9 -2 -21 4 -27 8 -8 9 -6 4 8 -5 13 -4 17 4 12 8 -5
10 -2 6 8 -8 20 -10 20 -18 -1z"/>
<path d="M3980 1491 c0 -6 4 -13 10 -16 6 -3 7 1 4 9 -7 18 -14 21 -14 7z"/>
<path d="M4075 1490 c-4 -6 -10 -8 -14 -6 -4 3 -13 0 -21 -5 -11 -7 -10 -8 8
-6 20 3 56 27 40 27 -4 0 -10 -5 -13 -10z"/>
<path d="M2413 1471 c0 -11 5 -18 9 -15 4 3 5 11 1 19 -7 21 -12 19 -10 -4z"/>
<path d="M2720 1486 c0 -2 8 -10 18 -17 15 -13 16 -12 3 4 -13 16 -21 21 -21
13z"/>
<path d="M3002 1481 c-11 -6 -9 -9 6 -13 15 -4 19 -2 15 8 -6 16 -4 16 -21 5z"/>
<path d="M3147 1473 c5 -12 3 -14 -7 -8 -8 5 -11 4 -6 -3 4 -6 13 -9 22 -5 11
4 12 9 3 19 -15 19 -20 18 -12 -3z"/>
<path d="M3236 1474 c-11 -8 -16 -14 -10 -14 13 0 39 18 34 24 -3 2 -14 -2
-24 -10z"/>
<path d="M3300 1479 c0 -5 5 -7 10 -4 6 3 10 8 10 11 0 2 -4 4 -10 4 -5 0 -10
-5 -10 -11z"/>
<path d="M3330 1486 c0 -2 7 -7 16 -10 8 -3 12 -2 9 4 -6 10 -25 14 -25 6z"/>
<path d="M3370 1480 c0 -5 5 -10 10 -10 6 0 10 5 10 10 0 6 -4 10 -10 10 -5 0
-10 -4 -10 -10z"/>
<path d="M3434 1479 c-4 -7 -3 -9 4 -5 5 3 13 0 15 -6 4 -9 6 -10 6 -1 1 17
-16 25 -25 12z"/>
<path d="M3714 1482 c3 -6 0 -13 -6 -16 -7 -3 -2 -3 11 0 17 5 21 3 16 -6 -5
-9 -4 -11 3 -6 16 10 15 14 -9 27 -13 6 -19 7 -15 1z"/>
<path d="M4117 1476 c-3 -8 0 -17 7 -19 10 -4 12 1 9 14 -6 23 -9 24 -16 5z"/>
<path d="M4240 1486 c0 -2 8 -10 18 -17 15 -13 16 -12 3 4 -13 16 -21 21 -21
13z"/>
<path d="M4510 1486 c0 -2 7 -7 16 -10 8 -3 12 -2 9 4 -6 10 -25 14 -25 6z"/>
<path d="M3795 1469 c-4 -6 -5 -12 -2 -15 2 -3 7 2 10 11 7 17 1 20 -8 4z"/>
<path d="M2455 1460 c3 -5 8 -10 11 -10 2 0 4 5 4 10 0 6 -5 10 -11 10 -5 0
-7 -4 -4 -10z"/>
<path d="M3273 1448 c-2 -18 0 -20 7 -8 12 18 13 30 2 30 -4 0 -9 -10 -9 -22z"/>
<path d="M3325 1460 c-3 -5 -1 -18 5 -27 9 -15 10 -14 4 6 -4 17 -3 21 6 16 9
-5 11 -4 6 3 -9 15 -13 15 -21 2z"/>
<path d="M3470 1460 c0 -5 7 -7 15 -4 8 4 15 8 15 10 0 2 -7 4 -15 4 -8 0 -15
-4 -15 -10z"/>
<path d="M3510 1466 c0 -2 9 -6 20 -9 11 -3 18 -1 14 4 -5 9 -34 13 -34 5z"/>
<path d="M3616 1462 c-2 -4 -1 -14 3 -21 6 -9 11 -10 15 -2 4 6 2 11 -4 11 -6
0 -8 5 -5 10 3 6 4 10 1 10 -3 0 -7 -4 -10 -8z"/>
<path d="M3813 1456 c-3 -6 -3 -8 2 -4 4 4 13 1 19 -7 8 -11 15 -12 26 -4 12
9 12 10 -4 5 -13 -4 -17 -2 -13 7 6 16 -21 19 -30 3z"/>
<path d="M2815 1449 c-4 -6 -5 -12 -2 -15 2 -3 7 2 10 11 7 17 1 20 -8 4z"/>
<path d="M2863 1444 c9 -11 15 -23 12 -26 -3 -3 5 -13 17 -24 23 -19 23 -19 7
1 -9 11 -15 28 -14 38 2 11 1 16 -2 13 -4 -3 -13 0 -22 6 -12 10 -12 7 2 -8z"/>
<path d="M3402 1447 c10 -8 14 -18 10 -22 -4 -4 3 -2 16 4 19 10 23 31 6 31
-3 0 -2 -4 1 -10 8 -13 -1 -13 -28 1 -20 9 -20 9 -5 -4z"/>
<path d="M3666 1443 c-6 -14 -5 -15 5 -6 7 7 10 15 7 18 -3 3 -9 -2 -12 -12z"/>
<path d="M3770 1452 c0 -7 -5 -10 -12 -6 -7 4 -8 3 -4 -5 4 -6 12 -9 17 -6 5
4 9 1 9 -6 0 -7 3 -10 6 -6 3 3 1 14 -5 24 -6 11 -11 13 -11 5z"/>
<path d="M3948 1437 c-3 -14 0 -24 7 -24 7 0 10 10 7 24 -2 13 -6 23 -7 23 -1
0 -5 -10 -7 -23z"/>
<path d="M4072 1455 c4 -4 2 -17 -4 -29 -6 -11 -7 -18 -3 -14 4 4 15 -1 24
-10 9 -10 12 -12 8 -5 -5 6 -5 18 -1 24 5 8 3 9 -6 4 -10 -6 -12 -4 -7 8 3 9
1 19 -6 23 -7 4 -9 4 -5 -1z"/>
<path d="M4166 1445 c-11 -8 -15 -15 -9 -15 6 0 16 7 23 15 16 19 11 19 -14 0z"/>
<path d="M3003 1433 c-10 -10 -13 -14 -6 -10 6 5 16 6 21 3 5 -3 9 1 9 9 0 19
-1 19 -24 -2z"/>
<path d="M3090 1441 c0 -6 4 -13 10 -16 6 -3 7 1 4 9 -7 18 -14 21 -14 7z"/>
<path d="M3120 1440 c8 -5 20 -10 25 -10 6 0 3 5 -5 10 -8 5 -19 10 -25 10 -5
0 -3 -5 5 -10z"/>
<path d="M3480 1435 c-19 -22 -8 -25 13 -3 9 10 13 18 8 18 -5 0 -14 -7 -21
-15z"/>
<path d="M3695 1440 c3 -5 8 -10 11 -10 2 0 4 5 4 10 0 6 -5 10 -11 10 -5 0
-7 -4 -4 -10z"/>
<path d="M4626 1442 c-3 -5 1 -9 9 -9 8 0 12 4 9 9 -3 4 -7 8 -9 8 -2 0 -6 -4
-9 -8z"/>
<path d="M4766 1442 c-3 -5 1 -9 9 -9 8 0 12 4 9 9 -3 4 -7 8 -9 8 -2 0 -6 -4
-9 -8z"/>
<path d="M2830 1436 c0 -2 8 -10 18 -17 15 -13 16 -12 3 4 -13 16 -21 21 -21
13z"/>
<path d="M3355 1429 c-4 -6 -4 -13 -1 -16 3 -4 6 -1 6 5 0 7 5 12 11 12 5 0 7
-5 3 -12 -4 -7 -3 -8 5 -4 12 8 6 26 -9 26 -5 0 -12 -5 -15 -11z"/>
<path d="M4189 1423 c-13 -16 -12 -17 4 -4 16 13 21 21 13 21 -2 0 -10 -8 -17
-17z"/>
<path d="M2455 1420 c-3 -5 -1 -10 4 -10 6 0 11 5 11 10 0 6 -2 10 -4 10 -3 0
-8 -4 -11 -10z"/>
<path d="M2917 1408 c19 -21 31 -25 14 -5 -6 8 -9 16 -6 19 3 2 -2 5 -10 5
-13 0 -13 -3 2 -19z"/>
<path d="M2947 1419 c7 -7 15 -10 18 -7 3 3 -2 9 -12 12 -14 6 -15 5 -6 -5z"/>
<path d="M3188 1423 c7 -3 16 -2 19 1 4 3 -2 6 -13 5 -11 0 -14 -3 -6 -6z"/>
<path d="M3867 1424 c7 -3 9 -13 6 -22 -4 -14 -3 -14 5 -2 12 16 7 30 -11 29
-9 0 -9 -2 0 -5z"/>
<path d="M3993 1410 c-1 -11 2 -20 5 -20 4 0 8 9 9 20 1 11 -2 20 -5 20 -4 0
-8 -9 -9 -20z"/>
<path d="M4113 1415 c0 -8 4 -12 9 -9 5 3 6 10 3 15 -9 13 -12 11 -12 -6z"/>
<path d="M4260 1426 c0 -2 8 -10 18 -17 15 -13 16 -12 3 4 -13 16 -21 21 -21
13z"/>
<path d="M4319 1413 c-13 -16 -12 -17 4 -4 9 7 17 15 17 17 0 8 -8 3 -21 -13z"/>
<path d="M4675 1420 c-3 -5 -1 -10 4 -10 6 0 11 5 11 10 0 6 -2 10 -4 10 -3 0
-8 -4 -11 -10z"/>
<path d="M2810 1416 c0 -2 8 -10 18 -17 15 -13 16 -12 3 4 -13 16 -21 21 -21
13z"/>
<path d="M3053 1406 c0 -15 22 -15 34 0 4 5 4 6 -1 2 -5 -4 -14 -3 -21 2 -8 7
-12 5 -12 -4z"/>
<path d="M3215 1410 c-4 -6 -11 -8 -16 -5 -5 3 -6 -2 -2 -11 5 -13 3 -15 -8
-9 -8 5 -11 4 -6 0 14 -16 36 -14 30 3 -4 9 -2 13 4 9 5 -3 10 0 10 8 0 18 -3
19 -12 5z"/>
<path d="M3578 1408 c5 -5 16 -8 23 -6 8 3 3 7 -10 11 -17 4 -21 3 -13 -5z"/>
<path d="M4206 1405 c-18 -14 -18 -14 1 -12 11 0 20 7 20 14 0 7 -1 13 -1 13
-1 0 -9 -7 -20 -15z"/>
<path d="M3000 1405 c0 -2 6 -8 13 -14 10 -8 14 -7 14 2 0 8 -6 14 -14 14 -7
0 -13 -1 -13 -2z"/>
<path d="M3155 1401 c-3 -5 -2 -12 3 -15 5 -3 9 1 9 9 0 17 -3 19 -12 6z"/>
<path d="M3388 1392 c-4 -12 1 -18 13 -18 12 0 15 4 9 12 -6 6 -7 14 -3 17 3
4 2 7 -4 7 -6 0 -13 -8 -15 -18z"/>
<path d="M3520 1389 c13 -23 22 -25 13 -2 -5 12 -3 14 8 8 8 -5 11 -4 6 0 -4
5 -14 10 -22 11 -12 2 -12 -2 -5 -17z"/>
<path d="M3735 1399 c-6 -8 -4 -10 5 -4 10 6 12 4 6 -11 -6 -15 -5 -17 5 -6 9
9 10 15 2 23 -8 8 -13 7 -18 -2z"/>
<path d="M4355 1401 c-3 -5 -2 -12 3 -15 5 -3 9 1 9 9 0 17 -3 19 -12 6z"/>
<path d="M4416 1398 c3 -5 10 -6 15 -3 13 9 11 12 -6 12 -8 0 -12 -4 -9 -9z"/>
<path d="M2530 1379 c0 -5 5 -7 10 -4 6 3 10 8 10 11 0 2 -4 4 -10 4 -5 0 -10
-5 -10 -11z"/>
<path d="M2980 1386 c0 -2 8 -10 18 -17 15 -13 16 -12 3 4 -13 16 -21 21 -21
13z"/>
<path d="M3083 1375 c-3 -9 -3 -18 -1 -21 3 -3 8 4 11 16 6 23 -1 27 -10 5z"/>
<path d="M3917 1377 c4 -6 0 -8 -10 -4 -11 4 -14 2 -10 -9 5 -13 8 -13 24 2
23 21 23 21 4 21 -8 0 -11 -5 -8 -10z"/>
<path d="M3950 1386 c0 -2 7 -7 16 -10 8 -3 12 -2 9 4 -6 10 -25 14 -25 6z"/>
<path d="M4060 1386 c0 -2 8 -10 18 -17 15 -13 16 -12 3 4 -13 16 -21 21 -21
13z"/>
<path d="M4306 1378 c3 -4 9 -8 15 -8 5 0 9 4 9 8 0 5 -7 9 -15 9 -8 0 -12 -4
-9 -9z"/>
<path d="M4653 1375 c0 -8 4 -12 9 -9 5 3 6 10 3 15 -9 13 -12 11 -12 -6z"/>
<path d="M3054 1360 c0 -13 4 -16 10 -10 7 7 7 13 0 20 -6 6 -10 3 -10 -10z"/>
<path d="M3135 1370 c-4 -6 -12 -7 -18 -4 -7 4 -9 4 -5 -1 4 -4 2 -15 -4 -24
-10 -12 -7 -12 8 2 11 9 23 15 26 12 2 -3 5 2 5 10 0 18 -3 19 -12 5z"/>
<path d="M3435 1370 c-3 -6 1 -7 9 -4 18 7 21 14 7 14 -6 0 -13 -4 -16 -10z"/>
<path d="M3473 1365 c0 -8 4 -15 9 -15 4 0 8 4 8 9 0 6 -4 12 -8 15 -5 3 -9
-1 -9 -9z"/>
<path d="M3553 1365 c0 -8 4 -15 9 -15 4 0 8 4 8 9 0 6 -4 12 -8 15 -5 3 -9
-1 -9 -9z"/>
<path d="M4014 1366 c1 -8 5 -18 8 -22 4 -3 5 1 4 10 -1 8 -5 18 -8 22 -4 3
-5 -1 -4 -10z"/>
<path d="M4173 1367 c0 -8 6 -14 14 -14 9 0 10 4 2 14 -6 7 -12 13 -14 13 -1
0 -2 -6 -2 -13z"/>
<path d="M2756 1358 c3 -5 10 -6 15 -3 13 9 11 12 -6 12 -8 0 -12 -4 -9 -9z"/>
<path d="M2967 1359 c7 -7 15 -10 18 -7 3 3 -2 9 -12 12 -14 6 -15 5 -6 -5z"/>
<path d="M3246 1362 c-3 -5 1 -9 9 -9 8 0 15 4 15 9 0 4 -4 8 -9 8 -6 0 -12
-4 -15 -8z"/>
<path d="M3934 1358 c-4 -7 -3 -10 1 -5 5 4 18 -1 29 -10 21 -18 21 -18 2 5
-22 26 -23 26 -32 10z"/>
<path d="M4106 1358 c3 -5 9 -7 12 -4 3 3 12 0 21 -6 13 -10 14 -10 4 2 -15
16 -46 23 -37 8z"/>
<path d="M2833 1345 c0 -8 4 -12 9 -9 5 3 6 10 3 15 -9 13 -12 11 -12 -6z"/>
<path d="M3869 1343 c-13 -16 -12 -17 4 -4 9 7 17 15 17 17 0 8 -8 3 -21 -13z"/>
<path d="M4495 1351 c-3 -5 -2 -12 3 -15 5 -3 9 1 9 9 0 17 -3 19 -12 6z"/>
<path d="M2574 1342 c4 -3 14 -7 22 -8 9 -1 13 0 10 4 -4 3 -14 7 -22 8 -9 1
-13 0 -10 -4z"/>
<path d="M3350 1335 c5 -7 6 -16 2 -21 -4 -5 -3 -6 2 -2 5 4 16 2 25 -4 12
-10 12 -7 -2 8 -9 11 -15 23 -12 26 3 2 -2 5 -10 5 -10 0 -12 -4 -5 -12z"/>
<path d="M3388 1343 c6 -3 10 -9 6 -14 -8 -14 2 -11 14 4 8 10 6 13 -11 14
-12 0 -16 -1 -9 -4z"/>
<path d="M3599 1348 c-5 -18 -6 -39 -2 -34 4 3 13 0 22 -6 11 -9 10 -6 -2 9
-14 16 -15 22 -5 26 10 4 10 6 1 6 -7 1 -13 0 -14 -1z"/>
<path d="M3633 1335 c0 -8 4 -12 9 -9 5 3 6 10 3 15 -9 13 -12 11 -12 -6z"/>
<path d="M3700 1344 c0 -1 6 -7 14 -13 10 -9 15 -8 19 2 3 8 -3 13 -14 13 -11
0 -19 -1 -19 -2z"/>
<path d="M3755 1342 c3 -3 -3 -15 -12 -26 -14 -15 -14 -18 -2 -8 9 6 18 11 20
9 2 -1 3 0 2 2 -2 2 2 9 7 16 7 8 5 12 -5 12 -8 0 -13 -3 -10 -5z"/>
<path d="M4415 1340 c3 -5 8 -10 11 -10 2 0 4 5 4 10 0 6 -5 10 -11 10 -5 0
-7 -4 -4 -10z"/>
<path d="M4450 1339 c0 -5 5 -7 10 -4 6 3 10 8 10 11 0 2 -4 4 -10 4 -5 0 -10
-5 -10 -11z"/>
<path d="M4576 1338 c3 -5 10 -6 15 -3 13 9 11 12 -6 12 -8 0 -12 -4 -9 -9z"/>
<path d="M3126 1325 c-11 -8 -15 -15 -9 -15 6 0 16 7 23 15 16 19 11 19 -14 0z"/>
<path d="M3249 1324 c-16 -19 -20 -42 -9 -49 5 -3 7 3 5 12 -1 10 4 26 13 36
8 9 13 17 10 17 -3 0 -12 -7 -19 -16z"/>
<path d="M3884 1318 c-12 -14 -13 -18 -3 -10 9 6 18 10 21 7 2 -3 5 2 5 10 0
19 0 19 -23 -7z"/>
<path d="M3933 1327 c0 -7 9 -14 20 -14 11 -1 18 -1 16 0 -2 2 -11 8 -20 15
-12 9 -16 9 -16 -1z"/>
<path d="M2955 1320 c3 -5 8 -10 11 -10 2 0 4 5 4 10 0 6 -5 10 -11 10 -5 0
-7 -4 -4 -10z"/>
<path d="M2990 1322 c0 -5 7 -9 15 -9 8 0 12 4 9 9 -3 4 -9 8 -15 8 -5 0 -9
-4 -9 -8z"/>
<path d="M4126 1322 c-3 -5 1 -9 9 -9 8 0 12 4 9 9 -3 4 -7 8 -9 8 -2 0 -6 -4
-9 -8z"/>
<path d="M4720 1320 c-9 -6 -10 -10 -3 -10 6 0 15 5 18 10 8 12 4 12 -15 0z"/>
<path d="M4029 1303 c-13 -16 -12 -17 4 -4 16 13 21 21 13 21 -2 0 -10 -8 -17
-17z"/>
<path d="M3199 1293 c-13 -16 -12 -17 4 -4 16 13 21 21 13 21 -2 0 -10 -8 -17
-17z"/>
<path d="M3265 1299 c-3 -4 2 -6 10 -5 21 3 28 13 10 13 -9 0 -18 -4 -20 -8z"/>
<path d="M3424 1302 c4 -3 14 -7 22 -8 9 -1 13 0 10 4 -4 3 -14 7 -22 8 -9 1
-13 0 -10 -4z"/>
<path d="M3670 1296 c7 -7 13 -7 20 0 6 6 3 10 -10 10 -13 0 -16 -4 -10 -10z"/>
<path d="M3830 1298 c0 -4 4 -8 9 -8 6 0 12 4 15 8 3 5 -1 9 -9 9 -8 0 -15 -4
-15 -9z"/>
<path d="M4155 1301 c-3 -5 -2 -12 3 -15 5 -3 9 1 9 9 0 17 -3 19 -12 6z"/>
<path d="M4415 1300 c3 -5 8 -10 11 -10 2 0 4 5 4 10 0 6 -5 10 -11 10 -5 0
-7 -4 -4 -10z"/>
<path d="M3343 1284 c9 -11 15 -23 12 -26 -3 -2 2 -5 10 -5 10 0 12 4 5 12 -5
7 -6 16 -2 21 4 5 3 6 -2 2 -5 -4 -16 -2 -25 4 -12 10 -12 7 2 -8z"/>
<path d="M3503 1285 c17 -19 17 -19 35 0 16 18 16 18 0 6 -15 -11 -21 -11 -35
0 -17 12 -17 12 0 -6z"/>
<path d="M3570 1297 c0 -2 6 -10 14 -16 11 -9 16 -9 22 1 4 7 4 10 -1 6 -4 -4
-14 -3 -22 3 -7 6 -13 9 -13 6z"/>
<path d="M3779 1298 c-5 -18 -6 -38 -1 -34 7 8 12 36 6 36 -2 0 -4 -1 -5 -2z"/>
<path d="M3899 1298 c-5 -18 -6 -38 -1 -34 7 8 12 36 6 36 -2 0 -4 -1 -5 -2z"/>
<path d="M2919 1273 c-13 -16 -12 -17 4 -4 9 7 17 15 17 17 0 8 -8 3 -21 -13z"/>
<path d="M3396 1273 c-6 -14 -5 -15 5 -6 7 7 10 15 7 18 -3 3 -9 -2 -12 -12z"/>
<path d="M3616 1273 c-6 -14 -5 -15 5 -6 7 7 10 15 7 18 -3 3 -9 -2 -12 -12z"/>
<path d="M3736 1278 c3 -5 10 -6 15 -3 13 9 11 12 -6 12 -8 0 -12 -4 -9 -9z"/>
<path d="M4046 1279 c4 -8 30 -6 38 2 3 3 -5 5 -19 5 -13 0 -22 -3 -19 -7z"/>
<path d="M3073 1265 c0 -8 4 -12 9 -9 5 3 6 10 3 15 -9 13 -12 11 -12 -6z"/>
<path d="M3953 1265 c0 -8 4 -12 9 -9 5 3 6 10 3 15 -9 13 -12 11 -12 -6z"/>
<path d="M3517 1250 c7 -8 20 -15 29 -16 9 -1 13 1 9 4 -4 4 -10 7 -13 7 -4 0
-14 4 -22 9 -12 7 -13 6 -3 -4z"/>
<path d="M2650 1246 c0 -2 7 -7 16 -10 8 -3 12 -2 9 4 -6 10 -25 14 -25 6z"/>
<path d="M2819 1248 c-5 -18 -6 -38 -1 -34 7 8 12 36 6 36 -2 0 -4 -1 -5 -2z"/>
<path d="M2857 1235 c-4 -8 -3 -16 1 -19 4 -3 9 4 9 15 2 23 -3 25 -10 4z"/>
<path d="M3026 1238 c3 -5 10 -6 15 -3 13 9 11 12 -6 12 -8 0 -12 -4 -9 -9z"/>
<path d="M3632 1245 c3 -3 16 -8 28 -10 12 -2 20 -1 16 2 -4 4 -16 8 -28 10
-12 2 -19 1 -16 -2z"/>
<path d="M3775 1239 c-3 -4 2 -6 10 -5 21 3 28 13 10 13 -9 0 -18 -4 -20 -8z"/>
<path d="M4370 1240 c0 -5 5 -10 11 -10 5 0 7 5 4 10 -3 6 -8 10 -11 10 -2 0
-4 -4 -4 -10z"/>
<path d="M3395 1221 c-3 -5 -2 -12 3 -15 5 -3 9 1 9 9 0 17 -3 19 -12 6z"/>
<path d="M3706 1218 c3 -4 9 -8 15 -8 5 0 9 4 9 8 0 5 -7 9 -15 9 -8 0 -12 -4
-9 -9z"/>
<path d="M4235 1219 c-3 -4 2 -6 10 -5 21 3 28 13 10 13 -9 0 -18 -4 -20 -8z"/>
<path d="M4029 1203 c-13 -16 -12 -17 4 -4 9 7 17 15 17 17 0 8 -8 3 -21 -13z"/>
<path d="M2953 1195 c0 -8 4 -12 9 -9 5 3 6 10 3 15 -9 13 -12 11 -12 -6z"/>
<path d="M3340 1206 c0 -2 8 -10 18 -17 15 -13 16 -12 3 4 -13 16 -21 21 -21
13z"/>
<path d="M4213 1191 c0 -11 5 -18 9 -15 4 3 5 11 1 19 -7 21 -12 19 -10 -4z"/>
<path d="M3170 1179 c0 -5 5 -7 10 -4 6 3 10 8 10 11 0 2 -4 4 -10 4 -5 0 -10
-5 -10 -11z"/>
<path d="M3210 1179 c0 -5 5 -7 10 -4 6 3 10 8 10 11 0 2 -4 4 -10 4 -5 0 -10
-5 -10 -11z"/>
<path d="M4055 1180 c3 -5 8 -10 11 -10 2 0 4 5 4 10 0 6 -5 10 -11 10 -5 0
-7 -4 -4 -10z"/>
<path d="M4154 1166 c1 -8 5 -18 8 -22 4 -3 5 1 4 10 -1 8 -5 18 -8 22 -4 3
-5 -1 -4 -10z"/>
<path d="M3346 1162 c-2 -4 4 -8 14 -8 10 0 16 4 14 8 -3 4 -9 8 -14 8 -5 0
-11 -4 -14 -8z"/>
<path d="M3670 1156 c7 -7 13 -7 20 0 6 6 3 10 -10 10 -13 0 -16 -4 -10 -10z"/>
<path d="M4053 1145 c0 -8 4 -12 9 -9 5 3 6 10 3 15 -9 13 -12 11 -12 -6z"/>
<path d="M2976 1138 c3 -4 11 -5 19 -1 21 7 19 12 -4 10 -11 0 -18 -5 -15 -9z"/>
<path d="M3054 1136 c1 -8 5 -18 8 -22 4 -3 5 1 4 10 -1 8 -5 18 -8 22 -4 3
-5 -1 -4 -10z"/>
<path d="M3135 1140 c3 -5 8 -10 11 -10 2 0 4 5 4 10 0 6 -5 10 -11 10 -5 0
-7 -4 -4 -10z"/>
<path d="M3210 1139 c0 -5 5 -7 10 -4 6 3 10 8 10 11 0 2 -4 4 -10 4 -5 0 -10
-5 -10 -11z"/>
<path d="M3255 1140 c3 -5 8 -10 11 -10 2 0 4 5 4 10 0 6 -5 10 -11 10 -5 0
-7 -4 -4 -10z"/>
<path d="M4093 1135 c0 -8 4 -12 9 -9 5 3 6 10 3 15 -9 13 -12 11 -12 -6z"/>
<path d="M3354 1120 c0 -13 4 -16 10 -10 7 7 7 13 0 20 -6 6 -10 3 -10 -10z"/>
<path d="M3670 1120 c0 -5 5 -10 10 -10 6 0 10 5 10 10 0 6 -4 10 -10 10 -5 0
-10 -4 -10 -10z"/>
<path d="M3126 1098 c3 -5 10 -6 15 -3 13 9 11 12 -6 12 -8 0 -12 -4 -9 -9z"/>
<path d="M3450 1100 c0 -5 5 -10 11 -10 5 0 7 5 4 10 -3 6 -8 10 -11 10 -2 0
-4 -4 -4 -10z"/>
<path d="M3530 1100 c0 -5 5 -10 11 -10 5 0 7 5 4 10 -3 6 -8 10 -11 10 -2 0
-4 -4 -4 -10z"/>
<path d="M3779 1108 c-5 -18 -6 -38 -1 -34 7 8 12 36 6 36 -2 0 -4 -1 -5 -2z"/>
<path d="M3874 1102 c4 -3 14 -7 22 -8 9 -1 13 0 10 4 -4 3 -14 7 -22 8 -9 1
-13 0 -10 -4z"/>
<path d="M3934 1102 c4 -3 14 -7 22 -8 9 -1 13 0 10 4 -4 3 -14 7 -22 8 -9 1
-13 0 -10 -4z"/>
<path d="M3086 1082 c-3 -5 1 -9 9 -9 8 0 12 4 9 9 -3 4 -7 8 -9 8 -2 0 -6 -4
-9 -8z"/>
<path d="M3270 1059 c0 -5 5 -7 10 -4 6 3 10 8 10 11 0 2 -4 4 -10 4 -5 0 -10
-5 -10 -11z"/>
<path d="M3326 1062 c-3 -5 1 -9 9 -9 8 0 12 4 9 9 -3 4 -7 8 -9 8 -2 0 -6 -4
-9 -8z"/>
<path d="M3374 1062 c4 -3 14 -7 22 -8 9 -1 13 0 10 4 -4 3 -14 7 -22 8 -9 1
-13 0 -10 -4z"/>
<path d="M3635 1059 c-3 -4 2 -6 10 -5 21 3 28 13 10 13 -9 0 -18 -4 -20 -8z"/>
<path d="M3696 1058 c3 -4 11 -5 19 -1 21 7 19 12 -4 10 -11 0 -18 -5 -15 -9z"/>
<path d="M3853 1055 c0 -8 4 -12 9 -9 5 3 6 10 3 15 -9 13 -12 11 -12 -6z"/>
<path d="M2953 1045 c0 -8 4 -12 9 -9 5 3 6 10 3 15 -9 13 -12 11 -12 -6z"/>
<path d="M3550 1021 c0 -6 4 -13 10 -16 6 -3 7 1 4 9 -7 18 -14 21 -14 7z"/>
<path d="M3633 1005 c0 -8 4 -12 9 -9 5 3 6 10 3 15 -9 13 -12 11 -12 -6z"/>
<path d="M3715 1009 c-4 -6 -5 -12 -2 -15 2 -3 7 2 10 11 7 17 1 20 -8 4z"/>
<path d="M2990 976 c0 -2 8 -10 18 -17 15 -13 16 -12 3 4 -13 16 -21 21 -21
13z"/>
</g>
</svg>
